<svg width="32" height="32" viewBox="0 0 32 32" fill="none" xmlns="http://www.w3.org/2000/svg">
<path d="M13.7891 22H11.7578V19.25H4.61719V22H2.58594V16.3984C2.58594 15.5807 2.72656 14.8281 3.00781 14.1406C3.28906 13.4531 3.67969 12.862 4.17969 12.3672C4.67969 11.8724 5.27083 11.487 5.95312 11.2109C6.63542 10.9349 7.38021 10.7969 8.1875 10.7969H12.7656C12.9062 10.7969 13.0391 10.8229 13.1641 10.875C13.2891 10.9271 13.3984 11 13.4922 11.0938C13.5859 11.1875 13.6589 11.2969 13.7109 11.4219C13.763 11.5469 13.7891 11.6797 13.7891 11.8203V22ZM4.61719 17.2188H11.7578V12.8281H8.1875C8.125 12.8281 7.99219 12.8385 7.78906 12.8594C7.59115 12.875 7.35938 12.9193 7.09375 12.9922C6.83333 13.0651 6.55729 13.1771 6.26562 13.3281C5.97396 13.4792 5.70573 13.6875 5.46094 13.9531C5.21615 14.2188 5.01302 14.5521 4.85156 14.9531C4.69531 15.349 4.61719 15.8307 4.61719 16.3984V17.2188ZM29.1953 22H27.1484V15.3281L23.5469 21.6641C23.4583 21.8255 23.3333 21.9479 23.1719 22.0312C23.0156 22.1146 22.8464 22.1562 22.6641 22.1562C22.487 22.1562 22.3203 22.1146 22.1641 22.0312C22.013 21.9479 21.8932 21.8255 21.8047 21.6641L18.1875 15.3281V22H16.1562V11.6641C16.1562 11.4297 16.224 11.2214 16.3594 11.0391C16.5 10.8568 16.6823 10.7344 16.9062 10.6719C17.0156 10.6458 17.125 10.638 17.2344 10.6484C17.3438 10.6536 17.4479 10.6771 17.5469 10.7188C17.651 10.7552 17.7448 10.8099 17.8281 10.8828C17.9115 10.9505 17.9818 11.0339 18.0391 11.1328L22.6641 19.1719L27.2891 11.1328C27.4089 10.9349 27.5729 10.7943 27.7812 10.7109C27.9948 10.6276 28.2161 10.6146 28.4453 10.6719C28.6641 10.7344 28.8438 10.8568 28.9844 11.0391C29.125 11.2214 29.1953 11.4297 29.1953 11.6641V22Z" fill="#0047FF"/>
</svg>
