<svg width="67" height="32" viewBox="0 0 67 32" fill="none" xmlns="http://www.w3.org/2000/svg">
<path d="M14.125 20.5H12.0938V17.75H4.95312V20.5H2.92188V14.8984C2.92188 14.0807 3.0625 13.3281 3.34375 12.6406C3.625 11.9531 4.01562 11.362 4.51562 10.8672C5.01562 10.3724 5.60677 9.98698 6.28906 9.71094C6.97135 9.4349 7.71615 9.29688 8.52344 9.29688H13.1016C13.2422 9.29688 13.375 9.32292 13.5 9.375C13.625 9.42708 13.7344 9.5 13.8281 9.59375C13.9219 9.6875 13.9948 9.79688 14.0469 9.92188C14.099 10.0469 14.125 10.1797 14.125 10.3203V20.5ZM4.95312 15.7188H12.0938V11.3281H8.52344C8.46094 11.3281 8.32812 11.3385 8.125 11.3594C7.92708 11.375 7.69531 11.4193 7.42969 11.4922C7.16927 11.5651 6.89323 11.6771 6.60156 11.8281C6.3099 11.9792 6.04167 12.1875 5.79688 12.4531C5.55208 12.7188 5.34896 13.0521 5.1875 13.4531C5.03125 13.849 4.95312 14.3307 4.95312 14.8984V15.7188ZM29.5312 20.5H27.4844V13.8281L23.8828 20.1641C23.7943 20.3255 23.6693 20.4479 23.5078 20.5312C23.3516 20.6146 23.1823 20.6562 23 20.6562C22.8229 20.6562 22.6562 20.6146 22.5 20.5312C22.349 20.4479 22.2292 20.3255 22.1406 20.1641L18.5234 13.8281V20.5H16.4922V10.1641C16.4922 9.92969 16.5599 9.72135 16.6953 9.53906C16.8359 9.35677 17.0182 9.23438 17.2422 9.17188C17.3516 9.14583 17.4609 9.13802 17.5703 9.14844C17.6797 9.15365 17.7839 9.17708 17.8828 9.21875C17.987 9.25521 18.0807 9.3099 18.1641 9.38281C18.2474 9.45052 18.3177 9.53385 18.375 9.63281L23 17.6719L27.625 9.63281C27.7448 9.4349 27.9089 9.29427 28.1172 9.21094C28.3307 9.1276 28.5521 9.11458 28.7812 9.17188C29 9.23438 29.1797 9.35677 29.3203 9.53906C29.4609 9.72135 29.5312 9.92969 29.5312 10.1641V20.5ZM39.9141 16.8984C39.9141 17.4245 39.8594 17.9531 39.75 18.4844C39.6406 19.0104 39.4792 19.5156 39.2656 20C39.0521 20.4792 38.7891 20.9245 38.4766 21.3359C38.1641 21.7526 37.8047 22.112 37.3984 22.4141C36.9974 22.7214 36.5469 22.9609 36.0469 23.1328C35.5521 23.3099 35.0156 23.3984 34.4375 23.3984C33.9219 23.3984 33.4583 23.3281 33.0469 23.1875C32.6406 23.0521 32.2943 22.849 32.0078 22.5781C31.7266 22.3073 31.5104 21.974 31.3594 21.5781C31.2083 21.1823 31.1328 20.7266 31.1328 20.2109C31.1328 20.0286 31.1406 19.8464 31.1562 19.6641C31.1719 19.4818 31.2005 19.3021 31.2422 19.125L31.3672 19.1094V19.2188C31.362 19.6927 31.4271 20.1536 31.5625 20.6016C31.7031 21.0547 31.9089 21.4557 32.1797 21.8047C32.4557 22.1589 32.7969 22.4427 33.2031 22.6562C33.6146 22.8698 34.0859 22.9766 34.6172 22.9766C35.1432 22.9766 35.6094 22.8724 36.0156 22.6641C36.4271 22.4609 36.7839 22.1875 37.0859 21.8438C37.388 21.5 37.6406 21.1042 37.8438 20.6562C38.0521 20.2135 38.2188 19.7526 38.3438 19.2734C38.4688 18.7891 38.5573 18.3099 38.6094 17.8359C38.6667 17.3568 38.6953 16.9115 38.6953 16.5C38.6953 16.0938 38.6562 15.651 38.5781 15.1719C38.5052 14.6875 38.3906 14.2031 38.2344 13.7188C38.0833 13.2344 37.888 12.7656 37.6484 12.3125C37.4141 11.8594 37.1354 11.4583 36.8125 11.1094C36.4896 10.7604 36.1198 10.4818 35.7031 10.2734C35.2917 10.0599 34.8333 9.95312 34.3281 9.95312C34.1354 9.95312 33.9375 9.98698 33.7344 10.0547C33.5312 10.1172 33.3307 10.2057 33.1328 10.3203C32.9349 10.4297 32.7474 10.5599 32.5703 10.7109C32.3984 10.862 32.2474 11.0286 32.1172 11.2109C31.987 11.388 31.8828 11.5755 31.8047 11.7734C31.7266 11.9661 31.6875 12.1615 31.6875 12.3594C31.6875 12.5052 31.7057 12.6354 31.7422 12.75C31.7786 12.8646 31.8177 12.9714 31.8594 13.0703C31.9062 13.1641 31.9479 13.2552 31.9844 13.3438C32.0208 13.4271 32.0391 13.513 32.0391 13.6016C32.0391 13.7526 31.987 13.8802 31.8828 13.9844C31.7839 14.0833 31.6615 14.1328 31.5156 14.1328C31.3958 14.1328 31.2995 14.1068 31.2266 14.0547C31.1536 14.0026 31.0964 13.9375 31.0547 13.8594C31.0182 13.776 30.9922 13.6849 30.9766 13.5859C30.9609 13.487 30.9531 13.3906 30.9531 13.2969C30.9531 13.0729 30.9844 12.849 31.0469 12.625C31.1094 12.401 31.1927 12.1849 31.2969 11.9766C31.401 11.763 31.5208 11.5625 31.6562 11.375C31.7917 11.1823 31.9297 11.0026 32.0703 10.8359C32.4141 10.4453 32.8021 10.138 33.2344 9.91406C33.6667 9.6849 34.1484 9.57031 34.6797 9.57031C35.3307 9.57031 35.9115 9.67708 36.4219 9.89062C36.9375 10.1042 37.388 10.3958 37.7734 10.7656C38.1641 11.1302 38.4948 11.5573 38.7656 12.0469C39.0365 12.5312 39.2552 13.0443 39.4219 13.5859C39.5938 14.1276 39.7188 14.6823 39.7969 15.25C39.875 15.8177 39.9141 16.3672 39.9141 16.8984ZM34.6172 11.6484C34.6172 11.7005 34.6094 11.75 34.5938 11.7969C34.5833 11.8385 34.5703 11.8802 34.5547 11.9219C34.4661 12.1562 34.3646 12.3828 34.25 12.6016C34.1406 12.8151 34.0547 13.0417 33.9922 13.2812C33.7578 14.1771 33.5885 15.0052 33.4844 15.7656C33.3802 16.526 33.3151 17.2526 33.2891 17.9453C33.2682 18.6328 33.2734 19.3073 33.3047 19.9688C33.3359 20.625 33.3724 21.2969 33.4141 21.9844L33.2891 22.0391C33.1536 21.6224 33.0391 21.1875 32.9453 20.7344C32.8568 20.2865 32.7839 19.8307 32.7266 19.3672C32.6745 18.9036 32.638 18.4401 32.6172 17.9766C32.5964 17.513 32.5859 17.0625 32.5859 16.625C32.5859 16.4219 32.5885 16.1745 32.5938 15.8828C32.6042 15.5911 32.6224 15.2786 32.6484 14.9453C32.6745 14.612 32.7135 14.2734 32.7656 13.9297C32.8177 13.5859 32.888 13.263 32.9766 12.9609C33.0703 12.6589 33.1823 12.3906 33.3125 12.1562C33.4479 11.9219 33.612 11.7474 33.8047 11.6328C33.8932 11.5859 33.9844 11.5417 34.0781 11.5C34.1719 11.4531 34.2708 11.4297 34.375 11.4297C34.5365 11.4297 34.6172 11.5026 34.6172 11.6484ZM45.7656 19.3828C45.6302 19.5807 45.4661 19.7656 45.2734 19.9375C45.0859 20.1094 44.8776 20.2578 44.6484 20.3828C44.4245 20.5078 44.1875 20.6068 43.9375 20.6797C43.6927 20.7526 43.4453 20.7891 43.1953 20.7891C42.8411 20.7891 42.5104 20.7422 42.2031 20.6484C41.8958 20.5599 41.6276 20.4219 41.3984 20.2344C41.1693 20.0469 40.9896 19.8125 40.8594 19.5312C40.7292 19.2448 40.6641 18.9115 40.6641 18.5312C40.6641 18.1562 40.7318 17.8073 40.8672 17.4844C41.0078 17.1562 41.1979 16.8724 41.4375 16.6328C41.6823 16.388 41.9688 16.1953 42.2969 16.0547C42.625 15.9141 42.9766 15.8438 43.3516 15.8438C43.5286 15.8438 43.6927 15.8698 43.8438 15.9219C44 15.9688 44.1354 16.0417 44.25 16.1406C44.3646 16.2344 44.4531 16.3516 44.5156 16.4922C44.5833 16.6328 44.6172 16.7943 44.6172 16.9766C44.6172 17.1953 44.5729 17.388 44.4844 17.5547C44.3958 17.7214 44.2786 17.8672 44.1328 17.9922C43.987 18.1172 43.8203 18.2214 43.6328 18.3047C43.4505 18.388 43.2578 18.4557 43.0547 18.5078C42.8568 18.5599 42.6589 18.599 42.4609 18.625C42.2682 18.6458 42.0911 18.6562 41.9297 18.6562H41.7422C41.8099 19.1302 41.9974 19.4922 42.3047 19.7422C42.612 19.9922 43.0365 20.1172 43.5781 20.1172C43.9635 20.1172 44.3385 20.0495 44.7031 19.9141C45.0729 19.7786 45.4062 19.5911 45.7031 19.3516L45.7656 19.3828ZM41.7188 18.4219H41.9141C42.1016 18.4219 42.2943 18.3932 42.4922 18.3359C42.6901 18.2734 42.8672 18.1849 43.0234 18.0703C43.1849 17.9505 43.3177 17.8047 43.4219 17.6328C43.526 17.4609 43.5781 17.2656 43.5781 17.0469C43.5781 16.8333 43.5312 16.6562 43.4375 16.5156C43.349 16.375 43.1927 16.3047 42.9688 16.3047C42.7396 16.3047 42.5443 16.375 42.3828 16.5156C42.2266 16.651 42.099 16.8203 42 17.0234C41.901 17.2214 41.8281 17.4323 41.7812 17.6562C41.7396 17.875 41.7188 18.0703 41.7188 18.2422V18.4219ZM49.75 18.8203C49.75 19.0911 49.7005 19.3464 49.6016 19.5859C49.5026 19.8255 49.3646 20.0339 49.1875 20.2109C49.0104 20.388 48.8021 20.5286 48.5625 20.6328C48.3281 20.737 48.0729 20.7891 47.7969 20.7891C47.6146 20.7891 47.4349 20.7604 47.2578 20.7031C47.0807 20.6458 46.9167 20.5651 46.7656 20.4609C46.6198 20.3516 46.4922 20.2214 46.3828 20.0703C46.2734 19.9193 46.1953 19.7526 46.1484 19.5703L46.3281 19.5234C46.4635 19.6901 46.6198 19.8281 46.7969 19.9375C46.9792 20.0469 47.1849 20.1016 47.4141 20.1016C47.6068 20.1016 47.7839 20.0599 47.9453 19.9766C48.112 19.8932 48.2526 19.7839 48.3672 19.6484C48.487 19.513 48.5781 19.3568 48.6406 19.1797C48.7083 18.9974 48.7422 18.8125 48.7422 18.625C48.7422 18.401 48.7109 18.2161 48.6484 18.0703C48.5859 17.9193 48.5026 17.7943 48.3984 17.6953C48.2995 17.5911 48.1875 17.5026 48.0625 17.4297C47.9375 17.3516 47.8099 17.2734 47.6797 17.1953C47.5547 17.1172 47.4323 17.0286 47.3125 16.9297C47.1979 16.8307 47.099 16.7031 47.0156 16.5469C47.0104 16.8542 46.9583 17.1771 46.8594 17.5156C46.7604 17.8542 46.625 18.1823 46.4531 18.5C46.2865 18.8177 46.0938 19.1146 45.875 19.3906C45.6562 19.6667 45.4245 19.8984 45.1797 20.0859L45.1172 19.9766C45.2839 19.7995 45.4297 19.5781 45.5547 19.3125C45.6797 19.0469 45.7812 18.7682 45.8594 18.4766C45.9427 18.1797 46.0026 17.8828 46.0391 17.5859C46.0807 17.2891 46.1016 17.0182 46.1016 16.7734C46.1016 16.6432 46.0885 16.5156 46.0625 16.3906C46.0365 16.2656 46.0234 16.1432 46.0234 16.0234C46.0234 15.8776 46.0651 15.7656 46.1484 15.6875C46.237 15.6094 46.349 15.5703 46.4844 15.5703C46.5885 15.5703 46.6719 15.5938 46.7344 15.6406C46.7969 15.6875 46.8542 15.75 46.9062 15.8281C46.9583 15.901 47.0104 15.987 47.0625 16.0859C47.1146 16.1797 47.1797 16.2786 47.2578 16.3828C47.3411 16.4818 47.4427 16.5807 47.5625 16.6797C47.6875 16.7734 47.8464 16.8568 48.0391 16.9297C48.263 17.013 48.4766 17.1094 48.6797 17.2188C48.888 17.3229 49.0703 17.4479 49.2266 17.5938C49.388 17.7396 49.5156 17.9141 49.6094 18.1172C49.7031 18.3151 49.75 18.5495 49.75 18.8203ZM52.3594 14.1953C52.3594 14.2995 52.3359 14.4036 52.2891 14.5078C52.2422 14.612 52.1797 14.7057 52.1016 14.7891C52.0286 14.8672 51.9427 14.9323 51.8438 14.9844C51.7448 15.0365 51.6432 15.0625 51.5391 15.0625C51.4036 15.0625 51.2943 15.0182 51.2109 14.9297C51.1328 14.8411 51.0938 14.7292 51.0938 14.5938C51.0938 14.4896 51.1172 14.388 51.1641 14.2891C51.2109 14.1849 51.2708 14.0938 51.3438 14.0156C51.4219 13.9375 51.5078 13.875 51.6016 13.8281C51.7005 13.776 51.8021 13.75 51.9062 13.75C52.0417 13.75 52.151 13.7917 52.2344 13.875C52.3177 13.9583 52.3594 14.0651 52.3594 14.1953ZM54.5469 19.3828C54.4271 19.5807 54.2839 19.763 54.1172 19.9297C53.9557 20.0911 53.776 20.2344 53.5781 20.3594C53.3854 20.4792 53.1771 20.5729 52.9531 20.6406C52.7344 20.7083 52.5078 20.7422 52.2734 20.7422C51.9818 20.7422 51.7214 20.6927 51.4922 20.5938C51.2682 20.4948 51.0781 20.3594 50.9219 20.1875C50.7708 20.0104 50.6536 19.8047 50.5703 19.5703C50.4922 19.3307 50.4531 19.0703 50.4531 18.7891C50.4531 18.487 50.4974 18.2005 50.5859 17.9297C50.6745 17.6589 50.7969 17.4062 50.9531 17.1719C51.1094 16.9323 51.2917 16.7135 51.5 16.5156C51.7135 16.3177 51.9401 16.1406 52.1797 15.9844L52.2734 16.0547C52.0182 16.3568 51.8099 16.6953 51.6484 17.0703C51.4922 17.4453 51.4141 17.8359 51.4141 18.2422C51.4141 18.4766 51.4401 18.7031 51.4922 18.9219C51.5495 19.1354 51.6354 19.3255 51.75 19.4922C51.8698 19.6589 52.0208 19.7917 52.2031 19.8906C52.3854 19.9896 52.6068 20.0391 52.8672 20.0391C53.1745 20.0391 53.4661 19.974 53.7422 19.8438C54.0234 19.7135 54.276 19.5495 54.5 19.3516L54.5469 19.3828ZM58.3203 22.8984C58.3203 23.3203 58.2708 23.75 58.1719 24.1875C58.0729 24.6302 57.9167 25.0365 57.7031 25.4062C57.4896 25.776 57.2135 26.0885 56.875 26.3438C56.5417 26.599 56.138 26.7578 55.6641 26.8203C55.6172 26.8307 55.5729 26.8385 55.5312 26.8438C55.4896 26.849 55.4427 26.8516 55.3906 26.8516C55.1042 26.8516 54.8333 26.7943 54.5781 26.6797C54.3229 26.5651 54.099 26.4089 53.9062 26.2109C53.7188 26.0182 53.5703 25.7917 53.4609 25.5312C53.3516 25.276 53.2969 25.0078 53.2969 24.7266C53.2969 24.4141 53.362 24.1146 53.4922 23.8281C53.6172 23.5417 53.7839 23.276 53.9922 23.0312C54.2005 22.7917 54.4349 22.5781 54.6953 22.3906C54.9609 22.2083 55.2318 22.0625 55.5078 21.9531L55.5547 22.0547C55.0495 22.3255 54.6589 22.6979 54.3828 23.1719C54.1068 23.6458 53.9688 24.1693 53.9688 24.7422C53.9688 24.9766 54 25.2031 54.0625 25.4219C54.1302 25.6458 54.2292 25.8411 54.3594 26.0078C54.4896 26.1745 54.651 26.3073 54.8438 26.4062C55.0417 26.5104 55.2682 26.5625 55.5234 26.5625C55.8828 26.5625 56.1823 26.4688 56.4219 26.2812C56.6615 26.0938 56.8516 25.8594 56.9922 25.5781C57.138 25.2969 57.2396 24.9896 57.2969 24.6562C57.3594 24.3281 57.3906 24.0208 57.3906 23.7344C57.3906 23.4844 57.375 23.2396 57.3438 23C57.3125 22.7604 57.2786 22.5208 57.2422 22.2812C57.2109 22.0469 57.1797 21.8099 57.1484 21.5703C57.1172 21.3307 57.1016 21.0859 57.1016 20.8359C57.1016 20.6589 57.1068 20.4766 57.1172 20.2891C57.1328 20.1016 57.1589 19.9115 57.1953 19.7188C56.9661 19.9896 56.7005 20.2214 56.3984 20.4141C56.1016 20.6016 55.7812 20.6953 55.4375 20.6953C55.224 20.6953 55.0312 20.6536 54.8594 20.5703C54.6927 20.4922 54.5495 20.3854 54.4297 20.25C54.3151 20.1146 54.2266 19.9557 54.1641 19.7734C54.1068 19.5859 54.0781 19.3906 54.0781 19.1875C54.0781 18.9531 54.1146 18.7109 54.1875 18.4609C54.2656 18.2057 54.3698 17.9609 54.5 17.7266C54.6354 17.487 54.7943 17.263 54.9766 17.0547C55.1589 16.8411 55.3568 16.6562 55.5703 16.5C55.7891 16.3385 56.0182 16.2135 56.2578 16.125C56.4974 16.0312 56.7422 15.9844 56.9922 15.9844C57.1172 15.9844 57.2422 16.0026 57.3672 16.0391C57.4974 16.0703 57.6146 16.1198 57.7188 16.1875C57.8281 16.2552 57.9141 16.3411 57.9766 16.4453C58.0443 16.5495 58.0781 16.6745 58.0781 16.8203C58.0781 16.9245 58.0547 17.0182 58.0078 17.1016C57.9609 17.1849 57.901 17.2604 57.8281 17.3281C57.7552 17.3906 57.6745 17.4479 57.5859 17.5C57.4974 17.5521 57.4115 17.5964 57.3281 17.6328L57.2969 17.5391C57.3385 17.4922 57.3672 17.4349 57.3828 17.3672C57.3984 17.2995 57.4062 17.2344 57.4062 17.1719C57.4062 17.0781 57.3906 16.9844 57.3594 16.8906C57.3333 16.7917 57.2917 16.7031 57.2344 16.625C57.1823 16.5417 57.1146 16.474 57.0312 16.4219C56.9479 16.3698 56.8542 16.3438 56.75 16.3438C56.4844 16.3438 56.2448 16.4167 56.0312 16.5625C55.8177 16.7031 55.6354 16.8828 55.4844 17.1016C55.3385 17.3203 55.224 17.5599 55.1406 17.8203C55.0625 18.0755 55.0234 18.3177 55.0234 18.5469C55.0234 18.6979 55.0365 18.8516 55.0625 19.0078C55.0938 19.1641 55.1432 19.3047 55.2109 19.4297C55.2786 19.5547 55.3698 19.6589 55.4844 19.7422C55.6042 19.8203 55.7552 19.8594 55.9375 19.8594C56.2188 19.8594 56.4792 19.7865 56.7188 19.6406C56.9583 19.4896 57.1719 19.3125 57.3594 19.1094C57.4323 18.901 57.526 18.7057 57.6406 18.5234C57.7604 18.3359 57.9062 18.1745 58.0781 18.0391L58.2109 18.1328C58.0911 18.3255 58.013 18.5443 57.9766 18.7891C57.9401 19.0339 57.9219 19.2734 57.9219 19.5078C57.9219 19.7839 57.9427 20.0599 57.9844 20.3359C58.026 20.612 58.0703 20.8906 58.1172 21.1719C58.1693 21.4531 58.2161 21.737 58.2578 22.0234C58.2995 22.3099 58.3203 22.6016 58.3203 22.8984ZM65.8203 19.3828C65.7214 19.5703 65.6146 19.75 65.5 19.9219C65.3906 20.0938 65.2656 20.2448 65.125 20.375C64.9844 20.5052 64.8255 20.6094 64.6484 20.6875C64.4714 20.7656 64.2682 20.8047 64.0391 20.8047C63.7786 20.8047 63.5547 20.7396 63.3672 20.6094C63.1797 20.4844 63.0182 20.3177 62.8828 20.1094C62.7526 19.8958 62.6458 19.6536 62.5625 19.3828C62.4844 19.112 62.4193 18.8359 62.3672 18.5547C62.3151 18.2734 62.276 17.9974 62.25 17.7266C62.224 17.4505 62.2005 17.2031 62.1797 16.9844C62.0807 17.0625 61.9609 17.2135 61.8203 17.4375C61.6797 17.6562 61.5365 17.9141 61.3906 18.2109C61.2448 18.5078 61.1042 18.8307 60.9688 19.1797C60.8385 19.5286 60.7318 19.8724 60.6484 20.2109C60.6328 20.2839 60.6068 20.3594 60.5703 20.4375C60.5391 20.5156 60.4974 20.5859 60.4453 20.6484C60.3984 20.7161 60.3411 20.7708 60.2734 20.8125C60.2057 20.8594 60.1302 20.8828 60.0469 20.8828C59.9115 20.8828 59.8125 20.8359 59.75 20.7422C59.6927 20.6484 59.651 20.5417 59.625 20.4219C59.474 19.7604 59.3672 19.1276 59.3047 18.5234C59.2474 17.9193 59.2188 17.3151 59.2188 16.7109C59.2188 16.5651 59.2422 16.4401 59.2891 16.3359C59.3411 16.2266 59.4089 16.138 59.4922 16.0703C59.5755 15.9974 59.6745 15.9453 59.7891 15.9141C59.9036 15.8776 60.0234 15.8594 60.1484 15.8594C60.1641 15.8594 60.1875 15.8594 60.2188 15.8594C60.2552 15.8594 60.2891 15.8646 60.3203 15.875C60.3516 15.8802 60.3776 15.8906 60.3984 15.9062C60.4193 15.9219 60.4271 15.9427 60.4219 15.9688C60.2865 16.651 60.2214 17.3464 60.2266 18.0547C60.2318 18.7578 60.2682 19.4349 60.3359 20.0859C60.3932 19.8255 60.4766 19.5312 60.5859 19.2031C60.7005 18.8698 60.8307 18.5365 60.9766 18.2031C61.1276 17.8646 61.2891 17.5443 61.4609 17.2422C61.638 16.9349 61.8177 16.6771 62 16.4688C62.0885 16.3698 62.1771 16.2865 62.2656 16.2188C62.3594 16.1458 62.474 16.1094 62.6094 16.1094C62.6875 16.1094 62.7526 16.125 62.8047 16.1562C62.8568 16.1875 62.8984 16.2266 62.9297 16.2734C62.9661 16.3203 62.9922 16.375 63.0078 16.4375C63.0286 16.4948 63.0443 16.5521 63.0547 16.6094C63.0807 16.7604 63.1068 16.9557 63.1328 17.1953C63.1589 17.4349 63.1901 17.6901 63.2266 17.9609C63.2682 18.2318 63.3177 18.5052 63.375 18.7812C63.4323 19.0521 63.5052 19.2995 63.5938 19.5234C63.6823 19.7422 63.7891 19.9219 63.9141 20.0625C64.0391 20.2031 64.1875 20.2734 64.3594 20.2734C64.5 20.2734 64.6354 20.2474 64.7656 20.1953C64.901 20.138 65.0286 20.0677 65.1484 19.9844C65.2682 19.8958 65.3802 19.7969 65.4844 19.6875C65.5885 19.5729 65.6823 19.4609 65.7656 19.3516L65.8203 19.3828Z" fill="#0047FF"/>
</svg>
